<svg xmlns="http://www.w3.org/2000/svg" width="101" height="23" viewBox="0 0 101 23" fill="none">
<path d="M40.8466 4.23199V1.0606H27.3799V4.01835H36.3791L27.0176 14.0104V17.1825H41.0596V14.2241H31.3954L40.8466 4.23199Z" fill="#ffffff"/>
<path d="M57.3106 14.1747C57.1567 14.026 57.082 13.7377 57.082 13.3163V7.39949C57.082 5.24498 56.4963 3.5872 55.3301 2.43073C54.1638 1.27425 52.4411 0.693737 50.1678 0.693737C48.1776 0.693737 46.5542 1.16061 45.3081 2.08333C44.062 3.01124 43.2776 4.30733 42.9555 5.98003L46.8224 6.19366C47.0256 5.36965 47.3931 4.73914 47.9243 4.30733C48.4555 3.87551 49.2048 3.65733 50.173 3.65733C51.1957 3.65733 51.9749 3.94499 52.5106 4.5307C53.0418 5.11121 53.31 5.98977 53.31 7.15664L47.9341 8.1839C46.162 8.5261 44.8419 9.09233 43.9783 9.87673C43.1094 10.6611 42.6776 11.7481 42.6776 13.1377C42.6776 14.5273 43.1887 15.6098 44.2166 16.3838C45.2445 17.1578 46.599 17.5455 48.2918 17.5455H48.3016C49.2847 17.5455 50.1879 17.3968 51.0015 17.0935C51.8158 16.7909 52.4859 16.3637 53.0067 15.8078C53.3255 15.4708 53.5807 15.1039 53.7729 14.7085C53.8424 15.1585 53.9632 15.5409 54.1385 15.8526C54.4262 16.374 54.8333 16.7461 55.3443 16.9695C55.8606 17.1929 56.4463 17.302 57.1112 17.302C57.3943 17.302 57.6625 17.2922 57.9255 17.2721C58.1885 17.252 58.382 17.2227 58.5014 17.1825V14.4026H57.9904C57.6878 14.4026 57.4593 14.3234 57.3106 14.1741V14.1747ZM53.2996 10.6605C53.2996 11.4845 53.1262 12.204 52.7736 12.8196C52.421 13.4351 51.9301 13.9117 51.2944 14.2539C50.6593 14.5961 49.9093 14.765 49.0457 14.765H49.0405C48.2561 14.765 47.6509 14.5961 47.2289 14.2539C46.8068 13.9117 46.5938 13.4299 46.5938 12.8046C46.5938 12.2189 46.7873 11.752 47.1698 11.4001C47.5522 11.0475 48.1776 10.7793 49.0412 10.6007L53.3002 9.7566V10.6598L53.2996 10.6605Z" fill="#ffffff"/>
<path d="M80.7851 1.41885C79.9812 0.947429 79.013 0.709121 77.8864 0.709121C77.0423 0.709121 76.2832 0.87795 75.6079 1.22015C74.9326 1.56236 74.3722 2.05391 73.93 2.69935C73.6644 3.07987 73.4475 3.51428 73.2767 3.99739C72.9904 3.13636 72.5371 2.42533 71.9196 1.8656C71.0657 1.09158 69.954 0.703926 68.5839 0.703926C67.7995 0.703926 67.0846 0.86756 66.4398 1.20002C65.7944 1.53249 65.2431 2.00391 64.7911 2.61948C64.5379 2.96104 64.3275 3.34545 64.1535 3.76947L64.0515 1.06041H60.6412V17.1823L60.6464 17.192H64.4191V7.92136C64.4191 7.05774 64.5431 6.31814 64.7963 5.70256C65.0489 5.08698 65.397 4.61556 65.8379 4.2831C66.2801 3.95064 66.8112 3.787 67.4366 3.787C68.4443 3.787 69.1541 4.14414 69.5657 4.85907C69.9781 5.57399 70.1865 6.59151 70.1865 7.92136V17.1933H73.691V7.92136C73.691 7.05774 73.8098 6.31814 74.0527 5.70256C74.2962 5.08698 74.6436 4.61556 75.0949 4.2831C75.5468 3.95064 76.0832 3.787 76.7079 3.787C77.6559 3.787 78.3565 4.12466 78.8078 4.79933C79.2598 5.47464 79.4877 6.47203 79.4877 7.80253V17.194H83.2604V6.83956C83.2604 5.51425 83.0474 4.39219 82.6247 3.48895C82.2032 2.58052 81.587 1.89092 80.7831 1.41885H80.7851Z" fill="#ffffff"/>
<path d="M97.9666 2.14874C96.9498 1.38447 95.6796 1.002 94.1511 1.002C92.918 1.002 91.8518 1.31628 90.933 1.939C90.2427 2.40783 89.694 2.96237 89.2992 3.7143L89.2564 1.0572H85.6376V22.3063H89.4103V15.3219C89.5953 15.6674 89.8174 15.9875 90.0947 16.2778C90.5817 16.7953 91.1797 17.2024 91.8765 17.4797C92.5667 17.7635 93.3186 17.905 94.1206 17.905C95.6491 17.905 96.9257 17.5226 97.9426 16.7583C98.9536 15.994 99.7244 14.9765 100.236 13.707C100.748 12.4369 101 10.674 101 9.12072C101 6.42076 100.193 3.813 97.9673 2.14874H97.9666ZM96.4498 13.2759C95.7595 14.17 94.8225 14.6135 93.6388 14.6135C92.455 14.6135 91.518 14.1694 90.8278 13.2759C90.1434 12.3817 89.8044 11.1551 89.8044 9.57721C89.8044 7.99931 90.1434 6.50128 90.8278 5.60714C91.518 4.71299 92.455 4.26949 93.6388 4.26949C94.8225 4.26949 95.7595 4.71364 96.4498 5.60714C97.1342 6.50128 97.4731 7.99866 97.4731 9.57721C97.4731 11.1558 97.1342 12.3824 96.4498 13.2759Z" fill="#ffffff"/>
<path d="M0 7.9823L3.8019 1.06031H20.1712L16.3693 7.9823H0Z" fill="#ffffff"/>
<path d="M0 17.1817L3.8019 10.2591H20.1712L16.3693 17.1817H0Z" fill="#ffffff"/>
</svg>